<?xml version="1.0" encoding="utf-8"?>
<!-- Generator: Adobe Illustrator 21.0.2, SVG Export Plug-In . SVG Version: 6.00 Build 0)  -->
<svg version="1.1" id="Layer_1" xmlns="http://www.w3.org/2000/svg" xmlns:xlink="http://www.w3.org/1999/xlink" x="0px" y="0px"
	 viewBox="0 0 674.1 293" style="enable-background:new 0 0 674.1 293;" xml:space="preserve">
<style type="text/css">
	.st0{fill:#FFFFFF;}
</style>
<g>
	<path class="st0" d="M0.1,193.2L0,191.6l23.8-8.6c3.6-1.3,7-2.2,10.2-2.6c3.2-0.4,6.2-0.3,8.8,0.3c2.6,0.6,5,1.7,6.9,3.3
		c2,1.6,3.4,3.7,4.4,6.4c0.9,2.4,1.2,4.7,0.8,6.9c-0.3,2.2-1,4.3-2,6.2c-1.1,1.9-2.4,3.7-4,5.3c-1.6,1.6-3.2,3-4.9,4.3
		c-1.7,1.2-3.3,2.3-4.8,3.1c-1.6,0.8-2.8,1.5-3.8,1.8l-0.1,0.3c1-0.1,2.6-0.2,4.8-0.2c2.2,0,4.6,0.3,7.1,0.9
		c2.5,0.6,4.9,1.8,7.2,3.5c2.3,1.7,4.1,4.1,5.2,7.4c1.3,3.7,1.5,7.3,0.4,10.8c-1.1,3.6-2.9,6.9-5.6,10c-2.7,3.1-5.9,5.9-9.7,8.4
		c-3.8,2.5-7.8,4.5-12,6c-2.6,0.9-5.2,1.8-7.7,2.6s-5.1,1.7-7.8,2.7L2,276l-0.1-1.6l10.7-3.9l-0.2-81.7L0.1,193.2z M31.8,218.3
		c2.7-1,5.1-2.4,7.1-4.1c2-1.7,3.5-3.8,4.5-6.1c1.1-2.3,1.6-4.9,1.6-7.8c0-2.9-0.6-5.9-1.7-9.1c-1.3-3.6-3.5-6.1-6.4-7.5
		c-3-1.4-6.5-1.4-10.5,0l-4.4,1.6l0.1,36.5L31.8,218.3z M27,265.5c1.6-0.5,3.2-1,4.7-1.5c4.6-1.7,8.2-3.9,10.9-6.8
		c2.7-2.8,4.6-5.9,5.9-9.1c1.3-3.2,1.8-6.5,1.8-9.9c-0.1-3.4-0.6-6.3-1.5-9c-0.6-1.8-1.4-3.2-2.3-4.4c-0.9-1.2-1.9-2.1-2.9-2.8
		c-1-0.7-2-1.3-3-1.6c-1-0.4-2-0.6-2.9-0.7c-1.7-0.2-3.3-0.1-4.8,0.2c-1.5,0.3-3.4,0.9-5.5,1.7l-5.4,2l0.3,43.3
		C23.8,266.4,25.4,266,27,265.5z"/>
	<path class="st0" d="M75.1,166l-0.1-1.6l32.7-11.9l0.1,1.6l-11.1,4l0.4,81.6l24.7-9c2.7-1,5-2.7,6.8-5.2c1.8-2.5,3.3-5.1,4.4-7.9
		c1.1-2.8,1.9-5.5,2.4-8.2c0.5-2.6,0.9-4.6,1.2-5.9l1.5-0.5l0.1,23.4l-61.4,22.3l-0.1-1.6l10.9-4l-0.4-81.6L75.1,166z"/>
	<path class="st0" d="M160.9,216.6l-0.3-81.7l-12.1,4.4l-0.1-1.6l32.7-11.9l0.1,1.6l-11.1,4l0.4,81.6l12-4.4l0.1,1.6l-32.4,11.8
		l-0.1-1.6L160.9,216.6z"/>
	<path class="st0" d="M202.5,179.6c0,1.2,0.1,2.3,0.1,3.4c0.1,1.1,0.3,2.2,0.7,3.4c0.9,2.4,2.2,4.3,4,5.7c1.8,1.4,3.8,2.4,6.1,2.9
		c2.3,0.5,4.6,0.7,7.1,0.5c2.5-0.2,4.9-0.7,7.2-1.5c3.1-1.1,5.7-2.6,7.9-4.4c2.1-1.8,3.8-3.8,4.9-6c1.1-2.2,1.7-4.5,1.8-7
		c0.1-2.5-0.3-5-1.2-7.5c-0.9-2.6-2.4-4.7-4.3-6.3c-1.9-1.6-4.2-3-6.9-4.1l-10-4.1c-4.5-1.8-8.2-3.8-11.3-6.1
		c-3-2.3-5.2-5.3-6.6-9.1c-1.1-3-1.4-5.9-0.9-8.9c0.4-2.9,1.5-5.7,3.1-8.3c1.6-2.6,3.7-4.9,6.3-6.9c2.6-2,5.4-3.6,8.5-4.8
		c2.2-0.8,4.2-1.3,6-1.5c1.8-0.2,3.5-0.3,5-0.3c1.6,0,3,0,4.3-0.1c1.3,0,2.6-0.3,3.8-0.7c1.1-0.4,1.8-0.9,2.2-1.6
		c0.4-0.7,0.6-1.5,0.6-2.5l1.7-0.3l0,22.8l-1.3,0.5c-0.1-0.6-0.2-1.5-0.3-2.6c-0.1-1.1-0.5-2.4-1-4c-0.9-2.5-2.1-4.5-3.6-6
		c-1.5-1.5-3.1-2.5-4.9-3c-1.8-0.6-3.7-0.8-5.8-0.6c-2,0.2-4.1,0.6-6.1,1.4c-2.5,0.9-4.7,2.1-6.6,3.6c-1.9,1.5-3.3,3.1-4.4,4.8
		c-1.1,1.7-1.7,3.6-2,5.6c-0.2,2,0,4,0.8,6.1c1.1,3,2.9,5.3,5.4,6.9c2.5,1.6,5.1,3,7.9,4.1l12.5,5c3.4,1.3,6.4,3.1,9.3,5.2
		c2.8,2.2,4.9,5,6.1,8.4c1,2.7,1.3,5.6,1.1,8.8c-0.2,3.2-1.2,6.3-2.8,9.4c-1.6,3.1-4,6-7.2,8.8c-3.1,2.7-7.2,5-12,6.8
		c-2.5,0.9-4.8,1.5-6.9,1.8c-2.1,0.3-4,0.4-5.8,0.4c-1.8,0-3.4,0.1-5,0.1c-1.5,0.1-3,0.4-4.3,0.8c-0.9,0.3-1.6,1-2.2,1.9
		c-0.5,1-0.7,1.9-0.5,2.8l-1.6,0.2l-0.2-23.6L202.5,179.6z"/>
	<path class="st0" d="M271.5,154.5c0,1.2,0.1,2.3,0.1,3.4c0.1,1.1,0.3,2.2,0.7,3.4c0.9,2.4,2.2,4.3,4,5.7c1.8,1.4,3.8,2.4,6.1,2.9
		c2.3,0.5,4.6,0.7,7.1,0.5c2.5-0.2,4.9-0.7,7.2-1.5c3.1-1.1,5.7-2.6,7.9-4.4c2.1-1.8,3.8-3.8,4.9-6c1.1-2.2,1.7-4.5,1.8-7
		c0.1-2.5-0.3-5-1.2-7.5c-0.9-2.6-2.4-4.7-4.3-6.3c-1.9-1.6-4.2-3-6.9-4.1l-10-4.1c-4.5-1.8-8.2-3.8-11.3-6.1
		c-3-2.3-5.2-5.3-6.6-9.1c-1.1-3-1.4-5.9-0.9-8.9c0.4-2.9,1.5-5.7,3.1-8.3c1.6-2.6,3.7-4.9,6.3-6.9c2.6-2,5.4-3.6,8.5-4.8
		c2.2-0.8,4.2-1.3,6-1.5c1.8-0.2,3.5-0.3,5-0.3c1.6,0,3,0,4.3-0.1c1.3,0,2.6-0.3,3.8-0.7c1.1-0.4,1.8-0.9,2.2-1.6
		c0.4-0.7,0.6-1.5,0.6-2.5l1.7-0.3l0,22.8l-1.3,0.5c-0.1-0.6-0.2-1.5-0.3-2.6c-0.1-1.1-0.5-2.4-1-4c-0.9-2.5-2.1-4.5-3.6-6
		c-1.5-1.5-3.1-2.5-4.9-3c-1.8-0.6-3.7-0.8-5.8-0.6c-2,0.2-4.1,0.6-6.1,1.4c-2.5,0.9-4.7,2.1-6.6,3.6c-1.9,1.5-3.3,3.1-4.4,4.8
		c-1.1,1.7-1.7,3.6-2,5.6c-0.2,2,0,4,0.8,6.1c1.1,3,2.9,5.3,5.4,6.9c2.5,1.6,5.1,3,7.9,4.1l12.5,5c3.4,1.3,6.4,3.1,9.3,5.2
		c2.8,2.2,4.9,5,6.1,8.4c1,2.7,1.3,5.6,1.1,8.8c-0.2,3.2-1.2,6.3-2.8,9.4c-1.6,3.1-4,6-7.2,8.8c-3.1,2.7-7.2,5-12,6.8
		c-2.5,0.9-4.8,1.5-6.9,1.8c-2.1,0.3-4,0.4-5.8,0.4c-1.8,0-3.4,0.1-5,0.1c-1.5,0.1-3,0.4-4.3,0.8c-0.9,0.3-1.6,1-2.2,1.9
		c-0.5,1-0.7,1.9-0.5,2.8l-1.6,0.2l-0.2-23.6L271.5,154.5z"/>
	<path class="st0" d="M333.7,72l-0.1-1.6l59.7-21.7l0.1,20.3l-1.5,0.5c-0.1-0.9-0.3-2.3-0.7-4.1c-0.4-1.8-0.8-3.4-1.4-4.9
		c-0.9-2.5-2.2-4.2-3.8-5.2c-1.6-1-4.1-0.9-7.5,0.3l-23,8.4l0,38.9l15-5.4c2.2-0.8,3.9-2.1,5.2-3.8c1.3-1.7,2.3-3.6,2.9-5.5
		c0.7-1.9,1.1-3.8,1.3-5.5c0.2-1.8,0.4-3.1,0.5-4l1.5-0.5L382,113l-1.5,0.5c-0.1-0.9-0.2-2-0.4-3.6c-0.2-1.5-0.6-3.1-1.2-4.7
		c-1-2.8-2.6-4.6-4.6-5.3c-2.1-0.7-4.8-0.5-8.3,0.8l-10.7,3.9l0.1,41.2l12.4-4.5l0.1,1.6l-32.5,11.8l-0.1-1.6l10.7-3.9l-0.4-81.6
		L333.7,72z"/>
	<path class="st0" d="M441.9,31l0.1,1.6l-11.1,4l0.2,51c0,3.3,0.2,6.3,0.4,8.8c0.3,2.5,0.9,5.1,1.9,7.8c0.6,1.8,1.6,3.3,2.7,4.7
		c1.2,1.4,2.6,2.5,4.2,3.3c1.6,0.8,3.4,1.2,5.4,1.3c2,0.1,4.1-0.3,6.4-1.1c4.3-1.6,7.7-3.7,10.3-6.4c2.6-2.7,4.5-5.7,5.8-8.9
		c1.3-3.3,2.2-6.7,2.5-10.2c0.4-3.5,0.5-6.9,0.3-10.2L468.6,23l-12,4.4l-0.1-1.6l24.7-9l0.1,1.6l-11,4l2.5,55.3
		c0.5,9.9-0.9,17.7-4.3,23.5c-3.3,5.8-8.9,10.1-16.7,12.9c-4,1.5-7.6,2.1-10.8,2c-3.2-0.1-5.9-0.7-8.2-1.8c-2.3-1.1-4.2-2.5-5.6-4.3
		c-1.5-1.8-2.5-3.7-3.2-5.6c-1.1-3-1.8-6.1-2.1-9.2c-0.3-3.1-0.4-6.8-0.4-11l-0.2-43.9l-12,4.4l-0.1-1.6L441.9,31z"/>
	<path class="st0" d="M494.7,13.5l-0.1-1.6L527.4,0l0.1,1.6l-11.1,4l0.4,81.6l24.7-9c2.7-1,5-2.7,6.8-5.2c1.8-2.5,3.3-5.1,4.4-7.9
		c1.1-2.8,1.9-5.5,2.4-8.2c0.5-2.6,0.9-4.6,1.2-5.9l1.5-0.5l0.1,23.4l-61.4,22.3l-0.1-1.6l10.9-4l-0.4-81.6L494.7,13.5z"/>
	<path class="st0" d="M228.1,210.2l-0.1-1.6l23.8-8.6c3.6-1.3,7-2.2,10.2-2.6c3.2-0.4,6.2-0.3,8.8,0.3c2.6,0.6,5,1.7,6.9,3.3
		c2,1.6,3.4,3.7,4.4,6.4c0.9,2.4,1.2,4.7,0.8,6.9c-0.3,2.2-1,4.3-2,6.2c-1.1,1.9-2.4,3.7-4,5.3c-1.6,1.6-3.2,3.1-4.9,4.3
		c-1.7,1.2-3.3,2.3-4.8,3.1c-1.6,0.8-2.8,1.5-3.8,1.8l-0.1,0.3c1-0.1,2.6-0.2,4.8-0.2c2.2,0,4.6,0.3,7.1,0.9
		c2.5,0.6,4.9,1.8,7.2,3.5c2.3,1.7,4.1,4.1,5.2,7.4c1.3,3.7,1.5,7.3,0.4,10.8c-1.1,3.6-2.9,6.9-5.6,10c-2.7,3.1-5.9,5.9-9.7,8.4
		c-3.8,2.5-7.8,4.5-12,6c-2.6,0.9-5.2,1.8-7.7,2.6c-2.5,0.8-5.1,1.7-7.8,2.7L230,293l-0.1-1.6l10.7-3.9l-0.2-81.7L228.1,210.2z
		 M259.8,235.2c2.7-1,5.1-2.4,7.1-4.1c2-1.7,3.5-3.8,4.5-6.1c1.1-2.3,1.6-4.9,1.6-7.8c0-2.9-0.6-5.9-1.7-9.1
		c-1.3-3.6-3.5-6.1-6.4-7.5c-3-1.4-6.5-1.4-10.5,0l-4.4,1.6l0.1,36.5L259.8,235.2z M255,282.5c1.6-0.5,3.2-1,4.7-1.5
		c4.6-1.7,8.2-3.9,10.9-6.8c2.7-2.8,4.6-5.9,5.9-9.1c1.3-3.2,1.8-6.5,1.8-9.9c-0.1-3.4-0.6-6.3-1.5-9c-0.6-1.8-1.4-3.2-2.3-4.4
		c-0.9-1.2-1.9-2.1-2.9-2.8c-1-0.7-2-1.3-3-1.6c-1-0.4-2-0.6-2.9-0.7c-1.7-0.2-3.3-0.1-4.8,0.2c-1.5,0.3-3.4,0.9-5.5,1.7l-5.4,2
		l0.3,43.3C251.8,283.4,253.4,283,255,282.5z"/>
	<path class="st0" d="M303,183l0.1-1.7l25.7-9.3c2.5-0.9,5.1-1.5,8-1.9c2.8-0.4,5.6-0.3,8.2,0.2c2.6,0.5,5,1.6,7.2,3.1
		c2.2,1.6,3.8,3.9,4.9,6.9c0.9,2.5,1.2,5,0.8,7.2c-0.4,2.3-1.2,4.4-2.4,6.3c-1.2,1.9-2.7,3.7-4.4,5.3c-1.7,1.6-3.5,3-5.2,4.2
		c-1.7,1.2-3.3,2.2-4.8,3c-1.5,0.8-2.5,1.3-3.1,1.6l-0.1,0.4c1.2-0.3,2.7-0.5,4.6-0.7c1.9-0.2,3.9-0.1,5.9,0.3
		c2,0.4,3.9,1.2,5.7,2.4c1.8,1.2,3.1,3,4.1,5.6c0.6,1.8,1.1,3.5,1.4,5.3c0.3,1.8,0.6,3.5,0.9,5.2c0.3,1.7,0.5,3.4,0.8,5.1
		c0.3,1.7,0.8,3.5,1.4,5.2c0.7,2,1.8,3.3,3.3,4.1c1.5,0.8,3,0.9,4.6,0.3c0.6-0.2,1.1-0.5,1.7-0.8c0.6-0.3,1-0.6,1.2-0.8l0.9,1.2
		c-0.3,0.2-1,0.6-1.9,1.1c-1,0.5-2,1-3,1.3c-1.9,0.7-3.7,1.1-5.4,1.3c-1.7,0.2-3.3,0.1-4.9-0.4c-1.5-0.4-2.9-1.3-4.1-2.5
		c-1.2-1.2-2.2-2.9-2.9-5c-0.4-1.1-0.8-2.5-1.1-4.3c-0.4-1.8-0.7-3.7-1.1-5.7c-0.4-1.9-0.8-3.9-1.2-5.8c-0.4-1.9-0.9-3.5-1.4-4.9
		c-0.5-1.3-1.1-2.4-1.9-3.4c-0.8-1-1.9-1.8-3.3-2.2c-1.4-0.5-3.1-0.6-5.2-0.4c-2.1,0.2-4.6,0.8-7.7,1.9l-4.3,1.6l0.1,43.5l12.1-4.4
		l0,1.7l-32.4,11.8l0-1.7l10.8-3.9l-0.5-81.6L303,183z M332,209c2.8-1,5.2-2.2,7.2-3.5c2-1.3,3.5-2.5,4.4-3.7c0.8-1,1.5-2.2,2.2-3.5
		c0.7-1.4,1.2-2.9,1.5-4.7c0.3-1.8,0.4-3.7,0.3-5.8c-0.1-2.1-0.7-4.5-1.6-7.1c-1.4-3.9-3.7-6.4-6.8-7.5c-3.1-1.1-6.4-1-9.9,0.3
		l-4.4,1.6l0.1,36.5L332,209z"/>
	<path class="st0" d="M377.7,155.9l-0.1-1.6l58.7-21.3l0.1,20.3l-1.5,0.5c0-0.9-0.1-2.1-0.4-3.7c-0.3-1.6-0.6-3-1.1-4.4
		c-0.9-2.6-2.3-4.5-4-5.8c-1.7-1.2-4.3-1.3-7.7,0l-22.3,8.1l0.1,36.9l9.9-3.6c2.3-0.8,4-2.1,5.3-3.9c1.3-1.8,2.3-3.7,3-5.6
		c0.7-2,1.1-3.8,1.4-5.6c0.2-1.8,0.4-3,0.5-3.8l1.5-0.5l0.1,34.8l-1.5,0.5c0-1-0.1-2.3-0.3-3.8c-0.3-1.6-0.6-3-1.1-4.4
		c-1-2.7-2.5-4.4-4.5-5.2c-2-0.8-4.4-0.7-7.1,0.2l-7.2,2.6l0.2,43.1l24.7-9c2.8-1,5.1-2.8,7-5.3c1.8-2.5,3.3-5.2,4.4-8
		c1.1-2.8,1.9-5.5,2.4-8.1c0.5-2.6,0.8-4.5,1-5.8l1.5-0.5l0.1,23.4l-61.4,22.3l-0.1-1.6l10.9-4l-0.4-81.6L377.7,155.9z"/>
	<path class="st0" d="M467.2,205.1l25.6-94.7l2.4-0.9l29.3,74.7l11.4-4.1l0.1,1.6l-32.5,11.8l-0.1-1.6l11.5-4.2l-11.4-29.3
		l-24.3,8.8l-10,37.1l10.7-3.9l0.1,1.6l-21.8,7.9l-0.1-1.6L467.2,205.1z M490.7,125.1l-10.9,40.3L503,157l-12.1-32L490.7,125.1z"/>
	<path class="st0" d="M561.1,128.9l0.2,42l12-4.4l0.1,1.6l-32.3,11.7l-0.1-1.6l10.8-3.9l-0.4-81.6l-12,4.4l-0.1-1.6l32.4-11.8
		l0.1,1.6l-10.9,4l0.2,38l0.8-0.3l31-49l-0.1-0.2L581.1,82l-0.1-1.6l21.9-7.9L603,74l-7.3,2.6l-28.1,44.5l37,34l10-3.6l0.1,1.6
		l-32.1,11.7l-0.1-1.6l11.4-4.1l-32.1-30.4L561.1,128.9z"/>
	<path class="st0" d="M626.9,125.2c0,1.2,0.1,2.3,0.1,3.4c0.1,1.1,0.3,2.2,0.7,3.4c0.9,2.4,2.2,4.3,4,5.7c1.8,1.4,3.8,2.4,6.1,2.9
		c2.3,0.5,4.6,0.7,7.1,0.5c2.5-0.2,4.9-0.7,7.2-1.5c3.1-1.1,5.7-2.6,7.9-4.4c2.1-1.8,3.8-3.8,4.9-6c1.1-2.2,1.7-4.5,1.8-7
		c0.1-2.5-0.3-5-1.2-7.5c-0.9-2.6-2.4-4.7-4.3-6.3c-1.9-1.6-4.2-3-6.9-4.1l-10-4.1c-4.5-1.8-8.2-3.8-11.3-6.1
		c-3-2.3-5.2-5.3-6.6-9.1c-1.1-3-1.4-5.9-0.9-8.9c0.4-2.9,1.5-5.7,3.1-8.3c1.6-2.6,3.7-4.9,6.3-6.9c2.6-2,5.4-3.6,8.5-4.8
		c2.2-0.8,4.2-1.3,6-1.5c1.8-0.2,3.5-0.3,5-0.3c1.6,0,3,0,4.3-0.1c1.3,0,2.6-0.3,3.8-0.7c1.1-0.4,1.8-0.9,2.2-1.6
		c0.4-0.7,0.6-1.5,0.6-2.5l1.7-0.3l0,22.8l-1.3,0.5c-0.1-0.6-0.2-1.5-0.3-2.6c-0.1-1.1-0.5-2.4-1-4c-0.9-2.5-2.1-4.5-3.6-6
		c-1.5-1.5-3.1-2.5-4.9-3c-1.8-0.6-3.7-0.8-5.8-0.6c-2,0.2-4.1,0.6-6.1,1.4c-2.5,0.9-4.7,2.1-6.6,3.6c-1.9,1.5-3.3,3.1-4.4,4.8
		c-1.1,1.7-1.7,3.6-2,5.6c-0.2,2,0,4,0.8,6.1c1.1,3,2.9,5.3,5.4,6.9c2.5,1.6,5.1,3,8,4.1l12.5,5c3.4,1.3,6.4,3.1,9.3,5.2
		c2.8,2.2,4.9,5,6.1,8.4c1,2.7,1.3,5.6,1.1,8.8c-0.2,3.2-1.2,6.3-2.8,9.4c-1.6,3.1-4,6-7.2,8.8c-3.2,2.7-7.2,5-12,6.8
		c-2.5,0.9-4.8,1.5-6.9,1.8c-2.1,0.3-4,0.4-5.8,0.4s-3.4,0.1-5,0.1c-1.5,0.1-3,0.4-4.3,0.8c-0.9,0.3-1.6,1-2.2,1.9
		c-0.5,1-0.7,1.9-0.5,2.8l-1.6,0.2l-0.2-23.6L626.9,125.2z"/>
</g>
</svg>
